# AST/ASF file generated using VICON BodyLanguage
# -----------------------------------------------
:version 1.10
:name VICON
:units
  mass 1.0
  length 0.45
  angle deg
:documentation
   .ast/.asf automatically generated from VICON data using
   VICON BodyBuilder and BodyLanguage model FoxedUp or BRILLIANT.MOD
:root
   order TX TY TZ RX RY RZ
   axis XYZ
   position 0 0 0  
   orientation 0 0 0 
:bonedata
  begin
     id 1 
     name lhipjoint
     direction 0.528046 -0.759594 0.379717 
     length 2.39752 
     axis 0 0 0  XYZ
  end
  begin
     id 2 
     name lfemur
     direction 0.34202 -0.939693 0  
     length 7.31175  
     axis 0 0 20  XYZ
    dof rx ry rz
    limits (-160.0 20.0)
           (-70.0 70.0)
           (-60.0 70.0)
  end
  begin
     id 3 
     name ltibia
     direction 0.34202 -0.939693 0   
     length 7.52482   
     axis 0 0 20   XYZ
    dof rx
    limits (-10.0 170.0)
  end
  begin
     id 4 
     name lfoot
     direction 0.0675379 -0.185559 0.980309   
     length 2.00961   
     axis -90 7.62852e-016 20   XYZ
    dof rx rz
    limits (-45.0 90.0)
           (-70.0 20.0)
  end
  begin
     id 5 
     name ltoes
     direction 1.5352e-011 -4.22286e-011 1   
     length 1.01383   
     axis -90 7.62852e-016 20   XYZ
    dof rx
    limits (-90.0 20.0)
  end
  begin
     id 6 
     name rhipjoint
     direction -0.510274 -0.769251 0.384544   
     length 2.36742  
     axis 0 0 0  XYZ 
  end
  begin
     id 7 
     name rfemur
     direction -0.34202 -0.939693 0   
     length 7.45325   
     axis 0 0 -20   XYZ
    dof rx ry rz
    limits (-160.0 20.0)
           (-70.0 70.0)
           (-70.0 60.0)
  end
  begin
     id 8 
     name rtibia
     direction -0.34202 -0.939693 0   
     length 7.49587   
     axis 0 0 -20   XYZ
    dof rx
    limits (-10.0 170.0)
 end
 begin
     id 9 
     name rfoot
     direction -0.106475 -0.292536 0.950308   
     length 2.20898  
     axis -90 -7.62852e-016 -20   XYZ
    dof rx rz
    limits (-45.0 90.0)
           (-20.0 70.0)
  end
  begin
     id 10 
     name rtoes
     direction -1.53597e-011 -4.22023e-011 1   
     length 1.10065   
     axis -90 -7.62852e-016 -20   XYZ
    dof rx
    limits (-90.0 20.0)
  end
  begin
     id 11 
     name lowerback
     direction 0.0260024 0.998026 -0.0571652   
     length 2.11214   
     axis 0 0 0   XYZ
    dof rx ry rz
    limits (-20.0 45.0)
           (-30.0 30.0)
           (-30.0 30.0)
  end
  begin
     id 12 
     name upperback
     direction 0.0216202 0.999542 -0.0211766   
     length 2.11689   
     axis 0 0 0   XYZ
    dof rx ry rz
    limits (-20.0 45.0)
           (-30.0 30.0)
           (-30.0 30.0)
  end
  begin
     id 13 
     name thorax
     direction 0.00883312 0.999944 0.00589057   
     length 2.11821   
     axis 0 0 0   XYZ
    dof rx ry rz
    limits (-20.0 45.0)
           (-30.0 30.0)
           (-30.0 30.0)
  end
  begin
     id 14 
     name lowerneck
     direction -0.059386 0.994433 0.0870401   
     length 1.81176   
     axis 0 0 0   XYZ
    dof rx ry rz
    limits (-20.0 45.0)
           (-30.0 30.0)
           (-30.0 30.0)
  end
  begin
     id 15 
     name upperneck
     direction 0.0506457 0.97328 -0.223967   
     length 1.82382   
     axis 0 0 0   XYZ
    dof rx ry rz
    limits (-20.0 45.0)
           (-30.0 30.0)
           (-30.0 30.0)
  end
  begin
     id 16
     name head
     direction 0.0205902 0.996147 -0.0852487  
     length 1.84805  
     axis 0 0 0   XYZ
    dof rx ry rz
    limits (-20.0 45.0)
           (-30.0 30.0)
           (-30.0 30.0)
  end
  begin
     id 17 
     name lclavicle
     direction 0.949493 0.303881 -0.0782325  
     length 3.60584  
     axis 0 0 0   XYZ
    dof ry rz
    limits (-20.0 10.0)
           (0.0 20.0)
  end
  begin
     id 18 
     name lhumerus
     direction 1 -4.48965e-011 1.48782e-027   
     length 4.95681   
     axis 180 -30 -90   XYZ
    dof rx ry rz
    limits (-60.0 90.0)
           (-90.0 90.0)
           (-90.0 90.0)
  end
  begin
     id 19
     name lradius
     direction 1 -4.48952e-011 2.06528e-027   
     length 3.40915   
     axis 180 -30 -90   XYZ
    dof rx
    limits (-10.0 170.0)
  end
  begin
     id 20
     name lwrist
     direction 1 -4.48964e-011 1.28021e-027   
     length 1.70457   
     axis -1.61767e-015 90 90   XYZ
    dof ry
    limits (-180.0 0.0)
 end
  begin
     id 21 
     name lhand
     direction 1 -4.49094e-011 2.54887e-027   
     length 0.616403   
     axis -1.63363e-015 90 90   XYZ
    dof rx rz
    limits (-90.0 90.0)
           (-45.0 45.0)
  end
  begin
     id 22 
     name lfingers
     direction 1 -4.49002e-011 5.11407e-027   
     length 0.49696   
     axis -3.26723e-015 90 90   XYZ
    dof rx
    limits (0.0 90.0)
  end
  begin
     id 23
     name lthumb
     direction 0.707107 -6.34998e-011 0.707107   
     length 0.713539   
     axis -90 45 -2.25915e-014   XYZ
    dof rx rz
    limits (-45.0 45.0)
           (-45.0 45.0)
  end
  begin
     id 24 
     name rclavicle
     direction -0.937751 0.334612 -0.0930482   
     length 3.46287  
     axis 0 0 0   XYZ 
    dof ry rz
    limits (-10.0 20.0)
           (-20.0 0.0)
  end
  begin
     id 25 
     name rhumerus
     direction -1 -4.48962e-011 3.59972e-027  
     length 5.352   
     axis 180 30 90   XYZ
    dof rx ry rz
    limits (-90.0 60.0)
           (-90.0 90.0)
           (-90.0 90.0)
  end
  begin
     id 26 
     name rradius
     direction -1 -4.48987e-011 -3.76925e-027   
     length 3.43721   
     axis 180 30 90   XYZ
    dof rx
    limits (-10.0 170.0)
  end
  begin
     id 27 
     name rwrist
     direction -1 -4.48943e-011 1.28112e-027   
     length 1.7186   
     axis -1.61767e-015 -90 -90   XYZ
    dof ry
    limits (-180.0 0.0)
  end
  begin
     id 28
     name rhand
     direction -1 -4.49027e-011 2.55483e-027   
     length 0.72009   
     axis -1.63363e-015 -90 -90   XYZ
    dof rx rz
    limits (-90.0 90.0)
           (-45.0 45.0)
  end
  begin
     id 29
     name rfingers
     direction -1 -4.48827e-011 5.14506e-027   
     length 0.580555   
     axis -3.26723e-015 -90 -90   XYZ
    dof rx
    limits (0.0 90.0)
  end
  begin
     id 30
     name rthumb
     direction -0.707107 -6.34936e-011 0.707107   
     length 0.833564   
     axis -90 -45 2.25915e-014   XYZ
    dof rx rz
    limits (-45.0 45.0)
           (-45.0 45.0)
  end
:hierarchy
  begin
    root lhipjoint rhipjoint lowerback
    lhipjoint lfemur
    lfemur ltibia
    ltibia lfoot
    lfoot ltoes
    rhipjoint rfemur
    rfemur rtibia
    rtibia rfoot
    rfoot rtoes
    lowerback upperback
    upperback thorax
    thorax lowerneck lclavicle rclavicle
    lowerneck upperneck
    upperneck head
    lclavicle lhumerus
    lhumerus lradius
    lradius lwrist
    lwrist lhand lthumb
    lhand lfingers
    rclavicle rhumerus
    rhumerus rradius
    rradius rwrist
    rwrist rhand rthumb
    rhand rfingers
  end

#!OML:ASF H:\Terrain\Patient Classification 1\Terrain2\Thursday\justin.ASF
:FULLY-SPECIFIED
:DEGREES
818
root 21.341 24.1474 20.4689 0.0421458 -64.5647 0.21181
lowerback 6.3379 0.34124 -1.19132
upperback 3.64995 0.328781 2.63004
thorax 0.186335 0.0905127 3.35941
lowerneck -12.3705 -1.4669 -9.09036
upperneck 41.4377 -2.44671 3.39465
head 17.4971 -2.42978 2.62451
rclavicle -1.21259e-014 1.19271e-014
rhumerus -28.4756 -17.0391 -68.7271
rradius 23.6456
rwrist -9.86679
rhand -23.3086 10.7986
rfingers 7.12502
rthumb 3.1451 -19.158
lclavicle -1.21259e-014 1.19271e-014
lhumerus -30.55 6.41463 80.9665
lradius 27.447
lwrist -0.219093
lhand -14.9064 19.9624
lfingers 7.12502
lthumb 11.2551 49.6404
rfemur -16.2272 -1.40013 17.9475
rtibia 38.1211
rfoot -21.7305 -8.74044
rtoes 5.74174
lfemur -7.36196 -0.613475 -18.1068
ltibia 24.39
lfoot -12.853 -12.2542
ltoes 10.4919
819
root 21.3532 24.1586 20.492 -0.810544 -65.4741 1.26869
lowerback 6.27382 0.48691 -1.47852
upperback 3.61431 0.510836 2.37036
thorax 0.172571 0.182195 3.24147
lowerneck -12.2045 -1.5389 -8.88515
upperneck 41.3675 -2.67805 3.43912
head 17.4293 -2.48978 2.56414
rclavicle 2.88238e-015 2.38542e-015
rhumerus -28.8373 -16.7668 -68.8694
rradius 24.1378
rwrist -10.9024
rhand -23.3825 10.6477
rfingers 7.12502
rthumb 3.07373 -19.3099
lclavicle 2.88238e-015 2.38542e-015
lhumerus -30.1809 6.46538 80.4833
lradius 26.9786
lwrist -0.654339
lhand -14.8806 19.815
lfingers 7.12502
lthumb 11.2799 49.4917
rfemur -16.687 -3.14426 17.7746
rtibia 38.6732
rfoot -21.6682 -9.4292
rtoes 5.94051
lfemur -7.23993 -0.550288 -18.6942
ltibia 24.2224
lfoot -13.0236 -11.5058
ltoes 9.17481
820
root 21.3663 24.1565 20.5127 -1.27864 -66.4869 1.86967
lowerback 6.26244 0.72093 -1.38494
upperback 3.58076 0.828983 2.00387
thorax 0.128499 0.348398 2.78968
lowerneck -12.0114 -1.6963 -8.29528
upperneck 41.2762 -3.16207 3.4842
head 17.3537 -2.59193 2.38992
rclavicle -5.86415e-014 1.59028e-014
rhumerus -29.4233 -17.2177 -68.87
rradius 24.438
rwrist -10.344
rhand -22.9551 11.582
rfingers 7.12502
rthumb 3.48642 -18.3693
lclavicle -5.86415e-014 1.59028e-014
lhumerus -29.7505 6.14552 79.8548
lradius 26.5564
lwrist -1.05207
lhand -14.7066 19.5739
lfingers 7.12502
lthumb 11.4477 49.2413
rfemur -17.105 -4.54598 17.8552
rtibia 39.2278
rfoot -21.6218 -9.88734
rtoes 6.01186
lfemur -7.16707 0.0127124 -19.0481
ltibia 24.0626
lfoot -13.1987 -10.9028
ltoes 7.5584
821
root 21.3761 24.1505 20.5361 -1.03061 -67.4226 1.56241
lowerback 6.31936 0.729093 -1.14992
upperback 3.57833 0.850391 1.94998
thorax 0.0968493 0.362641 2.59962
lowerneck -11.945 -1.74572 -8.07608
upperneck 41.2888 -3.34416 3.47612
head 17.3525 -2.64295 2.31205
rclavicle -3.01159e-014 2.38542e-015
rhumerus -29.7397 -17.3999 -68.8503
rradius 24.8223
rwrist -9.85548
rhand -22.94 12.1979
rfingers 7.12502
rthumb 3.50102 -17.7531
lclavicle -3.01159e-014 2.38542e-015
lhumerus -29.5525 6.76244 79.237
lradius 26.1747
lwrist -1.58421
lhand -14.5341 19.6796
lfingers 7.12502
lthumb 11.6141 49.3377
rfemur -17.3003 -5.74354 18.263
rtibia 39.779
rfoot -21.7541 -9.76987
rtoes 8.67466
lfemur -6.96017 0.371909 -19.0033
ltibia 23.9259
lfoot -13.391 -10.2813
ltoes 6.30791
822
root 21.3844 24.1523 20.5557 -0.703533 -68.2286 1.23838
lowerback 6.33299 0.61012 -1.16165
upperback 3.57122 0.689829 2.15963
thorax 0.0883928 0.279189 2.83277
lowerneck -12.0808 -1.72157 -8.61599
upperneck 41.4024 -3.23123 3.63501
head 17.464 -2.67233 2.50164
rclavicle -5.33737e-014 7.95139e-016
rhumerus -29.712 -16.5022 -68.9412
rradius 25.3014
rwrist -10.5881
rhand -23.1161 11.8397
rfingers 7.12502
rthumb 3.33095 -18.1141
lclavicle -5.33737e-014 7.95139e-016
lhumerus -29.4415 7.76672 78.9435
lradius 25.7985
lwrist -2.14198
lhand -14.7388 20.1475
lfingers 7.12502
lthumb 11.4167 49.8167
rfemur -17.5279 -7.16196 18.6827
rtibia 40.2835
rfoot -21.815 -9.49584
rtoes 10.3263
lfemur -6.85576 0.396969 -18.9528
ltibia 23.8929
lfoot -13.5214 -9.66426
ltoes 6.1397
